<svg width="38" height="40" viewBox="0 0 38 40" fill="none" xmlns="http://www.w3.org/2000/svg">
<path fill-rule="evenodd" clip-rule="evenodd" d="M21.4762 38.7534C21.6341 34.8387 27.2182 35 27.4103 38.6622L35.8876 38.5319C36.1613 33.7694 37.0665 11.1401 37.0665 11.1401C35.3218 7.05937 28.7355 1.40047 21.3218 0.039093L0.928589 9.95351L0.956106 17.5188C6.80907 17.641 6.75017 26.6183 0.989416 26.6719L1.03431 39.0677L21.4762 38.7534ZM3.79618 14.4383L3.76093 12.5841H33.4318L32.1032 35.8144H30.051C27.8337 31.5299 21.0302 31.3672 18.8249 35.8144H4.20362L4.08004 29.3377C10.2989 26.8655 10.2647 16.7715 3.79618 14.4383ZM22.9974 27.0127C16.0582 27.0127 16.372 17.0988 22.8859 17.0988C29.3751 17.0988 29.3341 27.0127 22.9974 27.0127ZM14.0181 31.8799C9.55307 31.8799 9.75535 25.5017 13.9467 25.5017C18.1216 25.5012 18.095 31.8799 14.0181 31.8799Z" fill="black"/>
</svg>
