<svg width="34" height="56" viewBox="0 0 34 56" fill="none" xmlns="http://www.w3.org/2000/svg">
<path fill-rule="evenodd" clip-rule="evenodd" d="M26.316 41.7576L26.6423 45.262L0.875061 45.6641L0.983682 42.1067L4.92541 42.0521L5.01761 17.9649C5.01761 16.0599 8.07685 14.923 11.6102 14.5856L11.656 3.00564L15.6016 0.0680542L15.6962 14.5494C19.1784 14.8221 22.1691 15.8895 22.1695 17.7925L22.1415 41.8156L26.316 41.7576ZM24.578 19.8978L33.9044 19.7574L33.9194 15.7094L24.5853 16.5523L24.578 19.8978ZM24.564 26.2181L30.5666 26.1727L30.5778 23.142L24.5708 23.1849L24.564 26.2181ZM30.544 32.3607L24.551 32.6152L24.5578 29.359L30.5551 29.4019L30.544 32.3607ZM24.5384 38.5347L33.8388 39.2994L33.8484 35.5035L24.5452 35.4345L24.5384 38.5347ZM8.48044 42.0029L8.57941 19.9712C8.57941 17.7781 18.6333 17.207 18.6338 20.1054L18.5064 41.8653L8.48044 42.0029ZM10.8131 27.7041L16.4416 26.4841V39.6769H10.8131V27.7041ZM10.342 47.4045L10.4284 52.0201L6.16899 51.9887L4.7941 55.9961L22.0826 55.8875L20.9216 52.0974L16.4295 52.0641L16.5845 47.2958L10.342 47.4045Z" fill="black"/>
</svg>
