<svg width="60" height="60" viewBox="0 0 60 60" fill="none" xmlns="http://www.w3.org/2000/svg">
<rect width="60" height="60" fill="#D8D8D8" fill-opacity="0.01"/>
<path fill-rule="evenodd" clip-rule="evenodd" d="M15.625 7H44.375C49.1389 7 53 10.8611 53 15.625V44.375C53 49.1389 49.1389 53 44.375 53H15.625C10.8611 53 7 49.1389 7 44.375V15.625C7 10.8611 10.8611 7 15.625 7ZM32.1764 30L35.9455 29.9971L36.4486 25.2419H32.1706L32.1764 22.8614C32.1764 21.6222 32.2626 20.9581 34.0422 20.9581H36.4227V16.2H32.6162C28.0479 16.2 26.9956 18.5604 26.9956 22.4416L27.0014 25.2419L23.5514 25.2447V30H27.0014V43.8H32.1735L32.1764 30Z" fill="#E94F70"/>
</svg>
