<svg width="60" height="60" viewBox="0 0 60 60" fill="none" xmlns="http://www.w3.org/2000/svg">
<rect width="60" height="60" fill="#D8D8D8" fill-opacity="0.01"/>
<path fill-rule="evenodd" clip-rule="evenodd" d="M20.064 6.40633C22.579 6.29548 23.3801 6.26796 29.7836 6.26796C36.1871 6.26796 36.9882 6.29626 39.5126 6.41576C42.0182 6.52661 43.7321 6.93228 45.2337 7.51249C46.7817 8.11156 48.0993 8.92211 49.4075 10.2303C50.7252 11.5385 51.5271 12.8562 52.1073 14.4222C52.6883 15.9144 53.0931 17.637 53.204 20.1433C53.3148 22.6583 53.3424 23.4602 53.3424 29.8629C53.3424 36.2656 53.3148 37.0675 53.204 39.5825C53.0931 42.088 52.6875 43.8019 52.1073 45.3035C51.5082 46.8515 50.6976 48.1692 49.3894 49.4774C48.0812 50.7856 46.7636 51.5961 45.2156 52.1952C43.7234 52.7762 42.0001 53.1811 39.4945 53.2919C36.9795 53.4028 36.1776 53.4303 29.775 53.4303C23.3723 53.4303 22.5704 53.4028 20.0554 53.2919C17.5498 53.1811 15.8359 52.7754 14.3343 52.1952C12.7863 51.5961 11.4687 50.7856 10.1605 49.4774C8.84284 48.1692 8.04093 46.8515 7.43321 45.2949C6.85222 43.8027 6.44734 42.0802 6.33649 39.5738C6.22564 37.0588 6.19812 36.2577 6.19812 29.8542C6.19812 23.4508 6.22564 22.6497 6.33649 20.1252C6.44734 17.6197 6.85301 15.9058 7.43321 14.4042C8.04172 12.8562 8.84284 11.5385 10.1605 10.2303C11.4687 8.91268 12.7863 8.11077 14.343 7.50305C15.8352 6.92206 17.5577 6.51718 20.064 6.40633ZM39.3098 10.6533C36.8317 10.5424 36.0856 10.5149 29.7836 10.5149C23.4823 10.5149 22.7355 10.5424 20.2574 10.6533C17.9633 10.7547 16.711 11.1415 15.8815 11.4638C14.7856 11.897 14.0026 12.4033 13.1731 13.2327C12.3531 14.0527 11.8374 14.8444 11.4137 15.9411C11.0913 16.7698 10.7045 18.0135 10.6031 20.317C10.4922 22.7951 10.4647 23.5506 10.4647 29.8432C10.4647 36.1358 10.4922 36.8819 10.6031 39.3694C10.7045 41.6635 11.0913 42.9159 11.4137 43.7453C11.8468 44.8412 12.3531 45.6243 13.1826 46.4537C14.0026 47.2737 14.7942 47.7894 15.891 48.2132C16.7196 48.5355 17.9633 48.9223 20.2669 49.0237C22.7449 49.1346 23.5004 49.1621 29.793 49.1621C36.0856 49.1621 36.8317 49.1346 39.3192 49.0237C41.6133 48.9223 42.8657 48.5355 43.6951 48.2132C44.791 47.78 45.5741 47.2737 46.4035 46.4443C47.2235 45.6243 47.7392 44.8326 48.163 43.7359C48.4853 42.9072 48.8721 41.6635 48.9735 39.36C49.0844 36.8819 49.1119 36.1264 49.1119 29.8338C49.1119 23.5412 49.0844 22.7951 48.9735 20.3076C48.8721 18.0135 48.4853 16.7611 48.163 15.9317C47.7298 14.8358 47.2235 14.0527 46.3941 13.2233C45.5741 12.4033 44.7824 11.8876 43.6857 11.4638C42.857 11.1415 41.6133 10.7547 39.3098 10.6533Z" fill="#E94F70"/>
<path fill-rule="evenodd" clip-rule="evenodd" d="M17.6685 29.8535C17.6685 23.1646 23.0948 17.7384 29.7836 17.7384C36.4724 17.7384 41.8987 23.1646 41.8987 29.8535C41.8987 36.5423 36.4724 41.9685 29.7836 41.9685C23.0948 41.9685 17.6685 36.5423 17.6685 29.8535ZM21.9249 29.8534C21.9249 34.1924 25.4439 37.7121 29.7836 37.7121C34.1225 37.7121 37.6423 34.1924 37.6423 29.8534C37.6423 25.5145 34.1233 21.9948 29.7836 21.9948C25.4447 21.9948 21.9249 25.5145 21.9249 29.8534Z" fill="#E94F70"/>
<path d="M45.2062 17.2588C45.2062 18.8209 43.9396 20.0875 42.3775 20.0875C40.8153 20.0875 39.5488 18.8209 39.5488 17.2588C39.5488 15.6966 40.8153 14.4301 42.3775 14.4301C43.9396 14.4301 45.2062 15.6966 45.2062 17.2588Z" fill="#E94F70"/>
</svg>
