<svg width="60" height="60" viewBox="0 0 60 60" fill="none" xmlns="http://www.w3.org/2000/svg">
<rect width="60" height="60" fill="#D8D8D8" fill-opacity="0.01"/>
<path fill-rule="evenodd" clip-rule="evenodd" d="M37.1406 6.26796H22.8594C18.9158 6.26796 15.7189 9.4649 15.7189 13.4085V46.7311C15.7189 50.6748 18.9158 53.8717 22.8594 53.8717H37.1406C41.0842 53.8717 44.2811 50.6748 44.2811 46.7311V13.4085C44.2811 9.4649 41.0842 6.26796 37.1406 6.26796ZM32.3802 48.3509C32.3802 49.6655 31.3145 50.7311 30 50.7311C28.6855 50.7311 27.6198 49.6655 27.6198 48.3509C27.6198 47.0364 28.6855 45.9707 30 45.9707C31.3145 45.9707 32.3802 47.0364 32.3802 48.3509Z" fill="#E94F70"/>
</svg>
