<svg width="60" height="60" viewBox="0 0 60 60" fill="none" xmlns="http://www.w3.org/2000/svg">
<rect width="60" height="60" fill="#D8D8D8" fill-opacity="0.01"/>
<path fill-rule="evenodd" clip-rule="evenodd" d="M9.32807 29.4476C9.32807 17.9052 18.7579 8.54912 30.389 8.54912C42.0216 8.54912 51.4508 17.9052 51.4508 29.4476C51.4508 40.9886 42.0216 50.3461 30.389 50.3461C26.697 50.3461 23.2269 49.4018 20.2096 47.7465L8.54913 51.4508L12.3502 40.2388C10.4324 37.0885 9.32807 33.3959 9.32807 29.4476ZM37.1367 39.7852C38.1254 39.7336 40.3663 38.6126 40.8618 37.3842C41.3571 36.1558 41.3969 35.0879 41.2708 34.86C41.1687 34.6763 40.9182 34.5446 40.5467 34.3494C40.4592 34.3034 40.3649 34.2539 40.2643 34.1993C39.7361 33.9125 37.1429 32.5235 36.6566 32.327C36.1701 32.1313 35.8152 32.0293 35.4364 32.55C35.0575 33.0694 33.9816 34.2326 33.6556 34.5772C33.3281 34.9219 33.013 34.9539 32.4848 34.6662C32.3991 34.6196 32.2819 34.5639 32.1372 34.4952C31.3934 34.142 29.9234 33.4437 28.2619 31.8587C26.7176 30.3859 25.704 28.5987 25.4102 28.0535C25.1162 27.5079 25.4083 27.2296 25.6879 26.9744C25.8537 26.8219 26.0454 26.6073 26.2376 26.3921C26.3361 26.2819 26.4346 26.1716 26.5298 26.0695C26.769 25.8116 26.8757 25.6144 27.0222 25.3438C27.0469 25.298 27.0728 25.2502 27.1007 25.1997C27.2928 24.8506 27.2156 24.5359 27.0909 24.264C27.0072 24.0819 26.541 22.8234 26.12 21.6871C25.9132 21.1289 25.7173 20.6002 25.583 20.243C25.2051 19.238 24.773 19.2309 24.4621 19.2258C24.4376 19.2254 24.4137 19.2251 24.3908 19.2242C24.0983 19.2134 23.8398 19.2176 23.4627 19.2239C23.4352 19.2243 23.4071 19.2248 23.3783 19.2252C23.0195 19.2311 22.432 19.3235 21.9196 19.8394C21.8869 19.8722 21.8505 19.9079 21.8109 19.9468C21.229 20.5179 19.963 21.7602 19.8699 24.2181C19.7714 26.8374 21.5938 29.4402 21.8553 29.8136L21.8569 29.8159C21.8762 29.8436 21.9125 29.9016 21.9654 29.9863C22.6138 31.0225 25.7583 36.0483 30.7359 38.2114C35.1983 40.15 35.9821 39.9923 36.6818 39.8516C36.8264 39.8225 36.9675 39.7942 37.1367 39.7852Z" fill="#E94F70"/>
</svg>
