<svg width="54" height="42" viewBox="0 0 54 42" fill="none" xmlns="http://www.w3.org/2000/svg">
<path fill-rule="evenodd" clip-rule="evenodd" d="M49.2665 0.0119629H4.18807C1.88523 0.0119629 0 1.89719 0 4.20003V25.4148C0 27.7176 1.88523 29.6029 4.18807 29.6029H49.2665C51.5693 29.6029 53.4545 27.7176 53.4545 25.4148V4.20003C53.4545 1.89719 51.5693 0.0119629 49.2665 0.0119629ZM1.67045 32.9199H51.7841C52.7028 32.9199 53.4545 33.6716 53.4545 34.5904C53.4545 35.5091 52.7028 36.2608 51.7841 36.2608H1.67045C0.751705 36.2608 0 35.5091 0 34.5904C0 33.6716 0.751705 32.9199 1.67045 32.9199ZM1.67045 38.6472H51.7841C52.7028 38.6472 53.4545 39.3989 53.4545 40.3176C53.4545 41.2364 52.7028 41.9881 51.7841 41.9881H1.67045C0.751705 41.9881 0 41.2364 0 40.3176C0 39.3989 0.751705 38.6472 1.67045 38.6472ZM5.48864 25.7847H9.78409C10.7028 25.7847 11.4545 25.033 11.4545 24.1142C11.4545 23.1955 10.7028 22.4438 9.78409 22.4438H5.48864C4.56989 22.4438 3.81818 23.1955 3.81818 24.1142C3.81818 25.033 4.56989 25.7847 5.48864 25.7847ZM9.78409 7.17105H5.48864C4.56989 7.17105 3.81818 6.41935 3.81818 5.5006C3.81818 4.58185 4.56989 3.83014 5.48864 3.83014H9.78409C10.7028 3.83014 11.4545 4.58185 11.4545 5.5006C11.4545 6.41935 10.7028 7.17105 9.78409 7.17105ZM17.1818 14.8074C17.1818 20.0693 21.4653 24.3529 26.7273 24.3529C31.9892 24.3529 36.2727 20.0693 36.2727 14.8074C36.2727 9.54549 31.9892 5.26196 26.7273 5.26196C21.4653 5.26196 17.1818 9.54549 17.1818 14.8074ZM47.9659 25.7847H43.6705C42.7517 25.7847 42 25.033 42 24.1142C42 23.1955 42.7517 22.4438 43.6705 22.4438H47.9659C48.8847 22.4438 49.6364 23.1955 49.6364 24.1142C49.6364 25.033 48.8847 25.7847 47.9659 25.7847ZM43.6705 7.17105H47.9659C48.8847 7.17105 49.6364 6.41935 49.6364 5.5006C49.6364 4.58185 48.8847 3.83014 47.9659 3.83014H43.6705C42.7517 3.83014 42 4.58185 42 5.5006C42 6.41935 42.7517 7.17105 43.6705 7.17105Z" fill="#E94F70"/>
<circle cx="26.7272" cy="15.0341" r="6.32386" fill="#E94F70"/>
</svg>
