<svg width="27" height="69" viewBox="0 0 27 69" fill="none" xmlns="http://www.w3.org/2000/svg">
<path fill-rule="evenodd" clip-rule="evenodd" d="M18.7493 7.80218C18.5126 11.8416 16.6696 13.8336 13.8342 13.8336C10.9987 13.8336 9.20603 11.8513 8.95969 7.94018C8.9339 7.53134 8.9281 7.14378 8.94035 6.77492C3.62154 5.02929 5.57805 0.562988 13.9374 0.562988C22.3341 0.562988 23.8753 5.10345 18.7622 6.81813C18.7732 7.13346 18.7693 7.45976 18.7493 7.80218ZM17.1372 65.4159C17.4944 69.7822 22.7868 68.0824 22.7868 68.0824L21.597 39.3616C21.597 39.3616 27.471 33.9113 26.683 30.1814C25.895 26.4509 24.9296 19.7514 24.9296 19.7514C23.5058 18.4578 21.4223 17.548 19.0698 17.0076L15.4973 22.3786L15.0046 16.4814L12.7276 16.442L12.2079 22.2825L8.78558 16.8708C6.12554 17.3977 3.8034 18.376 2.38019 19.7953C2.38019 19.7953 1.22718 26.3135 0.384994 30.0634C-0.571978 34.3279 5.71669 39.2185 5.71669 39.2185L5.60126 41.1234L3.68861 41.0969L2.79999 47.5204C2.79999 47.5204 3.74536 48.9055 5.07828 49.7735L3.98073 67.898C3.98073 67.898 9.20474 69.9073 9.95278 65.0515C10.7105 60.1345 12.4961 45.166 12.4961 45.166L14.3791 45.2763C14.3791 45.2763 16.8186 61.5409 17.1372 65.4159ZM16.6987 23.8024L21.0115 23.8837C21.0115 23.8837 21.0192 25.6364 21.0186 26.1072C21.0186 28.9575 16.6735 28.9388 16.6735 26.1555C16.6735 25.6964 16.6987 23.8024 16.6987 23.8024ZM13.9612 2.95155C11.6307 2.95155 11.5179 6.47571 14.0012 6.47571C16.2679 6.47571 16.2827 2.95155 13.9612 2.95155Z" fill="#E94F70"/>
</svg>
