<svg width="49" height="60" viewBox="0 0 49 60" fill="none" xmlns="http://www.w3.org/2000/svg">
<path fill-rule="evenodd" clip-rule="evenodd" d="M2.54698 8.268L24.6 0L46.653 8.271C47.8237 8.70984 48.5995 9.82873 48.6 11.079V24C48.6 33.531 44.484 42.6 37.311 48.879L24.6 60L11.889 48.879C4.71476 42.6017 0.599714 33.5328 0.599976 24V11.079C0.600445 9.82873 1.37626 8.70984 2.54698 8.271V8.268ZM6.59998 13.158V24C6.60083 31.8017 9.96885 39.2233 15.84 44.361L24.6 52.026L33.36 44.361C39.2314 39.2236 42.5995 31.8017 42.6 24V13.158L24.6 6.408L6.59998 13.158ZM32.025 20.196L21.417 30.804V30.807L17.175 26.565C15.9978 25.4281 14.1267 25.4443 12.9695 26.6015C11.8123 27.7587 11.7961 29.6299 12.933 30.807L19.296 37.17C20.4675 38.3411 22.3665 38.3411 23.538 37.17L36.267 24.438C37.4039 23.2609 37.3876 21.3897 36.2304 20.2325C35.0732 19.0753 33.2021 19.0591 32.025 20.196Z" fill="#E94F70"/>
</svg>
