<svg width="88" height="40" fill="none" xmlns="http://www.w3.org/2000/svg"><path fill-rule="evenodd" clip-rule="evenodd" d="M44.312 9.382l1.347-3.237h2.449c.59 0 .902-.258 1.065-.501a.771.771 0 000-.853c-.163-.245-.477-.503-1.065-.503h-2.45l-1.346-3.236S43.929 0 43.179 0s-.873.575-.842 1.232c.03.657.276 3.023.276 3.023h-2.174s-.46-.805-.627-1.117c-.169-.312-.337-.493-.735-.493-.398 0-.413.247-.352.74.058.47.228 1.72.243 1.832-.015.111-.185 1.362-.243 1.831-.062.493-.046.74.352.74.398 0 .566-.18.735-.493.168-.312.627-1.117.627-1.117h2.174s-.245 2.366-.276 3.023c-.03.657.092 1.232.842 1.232s1.133-1.051 1.133-1.051zM7.572 24.49a46.042 46.042 0 017.572-7.888c.235-.193.373-.48.373-.783v-.871a1 1 0 011-1h1.92c.196 0 .388-.059.553-.166a44.787 44.787 0 0118.3-6.866c.453-.063.81-.417.871-.87l.08-.596.014-.098c.012-.09.012-.18 0-.27L38.23 4.9a.988.988 0 00-1.104-.853c-8.743 1.155-17.226 4.665-24.38 10.53H.4v3.03h8.163L0 28.619v2.396h13.527v-3.03H4.742l2.83-3.495zm61.192-10.542c-.196 0-.389-.059-.553-.166a44.805 44.805 0 00-18.232-6.856c-.279-.04-.404-.617-.247-.85a1.552 1.552 0 000-1.719c-.087-.129.018-.35.172-.33 8.797 1.134 17.336 4.651 24.533 10.55h6.223c1.74 0 3.129.447 4.14 1.362 1.012.893 1.53 2.067 1.53 3.5 0 2.117-1.195 3.793-3.22 4.492l2.039 3.144L88 31.015h-1.963a1.039 1.039 0 01-.159.013l-.954.007c-.07 0-.139-.007-.206-.02h-.647l-4.8-6.646h-2.846v6.646h-3.388V17.426a45.126 45.126 0 00-1.817-1.493 1.013 1.013 0 01-.392-.798v-.187a1 1 0 00-1-1h-1.064zm7.661 6.73v.85h4.047c1.529 0 2.446-.704 2.446-1.996 0-1.244-.917-1.996-2.446-1.996h-2.745a48.988 48.988 0 011.808 1.879c.572.627.117 1.612-.731 1.612h-1.665a.911.911 0 01-.714-.348zm-56.93 3.128v7.209h-3.389V14.577h3.388v6.153h7.434v-6.153h3.365v16.438h-3.365v-7.21h-7.434zm17.922 7.209V14.577h-3.365v16.438h3.365zm16.177-1.292c-1.035.869-2.423 1.292-4.164 1.292h-8.281V14.577h7.74c3.011 0 4.987 1.48 4.987 4.11 0 1.667-.94 2.794-2.07 3.264.918.188 1.694.68 2.353 1.456.658.774.988 1.737.988 2.935 0 1.385-.518 2.512-1.553 3.381zm-4.8-5.917h-4.258v4.297h4.259c1.67 0 2.682-.752 2.682-2.137s-1.012-2.16-2.682-2.16zm-.446-6.41h-3.812v3.615h3.812c1.411 0 2.258-.657 2.258-1.784 0-1.15-.847-1.832-2.258-1.832zM70.34 31.014v-3.03h-8.963V23.76h7.01v-2.983h-7.01v-3.17h8.705v-3.029H57.989v16.438H70.34z" fill="#2D5B75"/><path d="M20.313 38.874c.356 0 .67-.072.953-.223v-.722a1.574 1.574 0 01-.814.204.983.983 0 01-.664-.235.77.77 0 01-.271-.608c0-.246.09-.451.265-.602a.988.988 0 01.67-.235c.247 0 .507.06.766.181v-.723a1.966 1.966 0 00-.893-.198c-.452 0-.838.144-1.164.433-.32.283-.483.663-.483 1.138 0 .476.163.861.483 1.157.32.288.706.433 1.152.433zm3.088 0c.495 0 .875-.102 1.146-.307v-.68a1.926 1.926 0 01-.965.264c-.53 0-.917-.216-1.008-.626h2.16v-.223c0-.445-.133-.819-.392-1.126-.26-.307-.603-.463-1.044-.463-.464 0-.844.15-1.134.457-.29.301-.434.675-.434 1.12 0 .476.163.861.482 1.15.32.29.718.434 1.189.434zm-.826-1.89c.042-.356.301-.603.687-.603.38 0 .616.271.634.602h-1.322zm4.652-1.271c-.434 0-.766.15-.99.445v-.367h-.85V40h.85v-1.572c.236.296.562.446.99.446.41 0 .748-.15 1.014-.452.271-.307.404-.68.404-1.126 0-.451-.133-.825-.404-1.126a1.278 1.278 0 00-1.014-.457zm-.241.74c.235 0 .434.079.585.241.15.163.23.361.23.602a.847.847 0 01-.23.596.766.766 0 01-.585.241.847.847 0 01-.748-.445v-.783a.852.852 0 01.748-.452zm4.057 2.343c.7 0 1.098-.32 1.098-.825 0-.38-.193-.638-.573-.771.247-.126.368-.337.368-.638 0-.44-.338-.771-.965-.771H29.27v3.005h1.773zm-.935-1.27h.724c.296 0 .44.114.44.336 0 .223-.144.338-.44.338h-.724v-.675zm0-1.15h.591c.272 0 .405.102.405.306 0 .205-.133.307-.405.307h-.59v-.614zm3.487 2.42l1.363-1.77v1.77h.839V35.79H35l-1.364 1.77v-1.77h-.839v3.005h.797zm4.469.078c.356 0 .67-.072.953-.223v-.722a1.573 1.573 0 01-.815.204.983.983 0 01-.663-.235.77.77 0 01-.272-.608c0-.246.09-.451.266-.602a.988.988 0 01.67-.235c.247 0 .506.06.766.181v-.723a1.967 1.967 0 00-.893-.198c-.453 0-.839.144-1.165.433-.32.283-.482.663-.482 1.138 0 .476.163.861.482 1.157.32.288.706.433 1.153.433zm3.736.686v-.764h2.173v.764h.802v-1.475h-.495v-2.294h-2.534l-.012.584c-.012.789-.132 1.355-.361 1.71h-.387v1.475h.815zm.441-1.475c.175-.427.266-.957.266-1.584h.94v1.584h-1.206zm3.993-.193a.83.83 0 01-.236-.602c0-.24.079-.44.236-.596a.792.792 0 01.597-.24c.241 0 .44.078.597.24a.807.807 0 01.235.596.83.83 0 01-.235.602.792.792 0 01-.597.241.792.792 0 01-.597-.24zm-1.074-.602c0 .452.157.825.47 1.132.314.302.712.452 1.2.452.49 0 .888-.15 1.201-.452.314-.307.47-.68.47-1.132 0-.44-.156-.813-.47-1.12-.313-.307-.712-.457-1.2-.457-.489 0-.887.15-1.2.457a1.49 1.49 0 00-.471 1.12zm5.405 1.584c.356 0 .67-.072.953-.223v-.722a1.573 1.573 0 01-.814.204.983.983 0 01-.664-.235.77.77 0 01-.271-.608c0-.246.09-.451.265-.602a.988.988 0 01.67-.235c.247 0 .507.06.766.181v-.723a1.967 1.967 0 00-.893-.198c-.452 0-.838.144-1.164.433-.32.283-.483.663-.483 1.138 0 .476.163.861.483 1.157.32.288.706.433 1.152.433zm3.141-.078v-2.294h.953v-.711h-2.745v.71h.941v2.295h.85zm4.322-.656c-.14 0-.212-.079-.212-.23v-1.017c0-.367-.132-.656-.398-.867-.26-.21-.61-.313-1.037-.313-.44 0-.809.078-1.117.24v.711c.284-.169.592-.253.911-.253.531 0 .797.187.797.566v.09c-.242-.126-.531-.186-.869-.186-.326 0-.603.084-.839.253-.235.168-.35.415-.35.734 0 .609.46 1.006 1.11 1.006.429 0 .773-.139 1.038-.41.115.26.338.386.682.386.2 0 .35-.042.459-.127v-.62a.361.361 0 01-.175.036zm-1.056-.23c-.157.205-.386.308-.682.308-.314 0-.537-.127-.537-.392 0-.247.23-.391.591-.391.248 0 .453.06.628.174v.302zm3.593.886c.7 0 1.098-.32 1.098-.825 0-.38-.193-.638-.573-.771.247-.126.367-.337.367-.638 0-.44-.337-.771-.965-.771h-1.701v3.005h1.774zm-.935-1.27h.723c.296 0 .44.114.44.336 0 .223-.144.338-.44.338h-.723v-.675zm0-1.15h.59c.272 0 .405.102.405.306 0 .205-.133.307-.404.307h-.591v-.614zm3.54 2.42V37.5l1.189 1.295h1.098l-1.514-1.65 1.309-1.355h-1.044l-1.037 1.096V35.79h-.851v3.005h.85zm3.558 0l1.363-1.77v1.77h.839V35.79h-.797l-1.363 1.77v-1.77h-.839v3.005h.797z" fill="#2D5B75"/></svg>