<svg width="30" height="30" viewBox="0 0 30 30" fill="none" xmlns="http://www.w3.org/2000/svg">
<rect width="30" height="30" fill="#D8D8D8" fill-opacity="0.01"/>
<mask id="path-2-inside-1" fill="white">
<path fill-rule="evenodd" clip-rule="evenodd" d="M7 9C6.44772 9 6 9.44772 6 10C6 10.5523 6.44772 11 7 11H23.0041C23.5564 11 24.0041 10.5523 24.0041 10C24.0041 9.44772 23.5564 9 23.0041 9H7ZM7 19C6.44772 19 6 19.4477 6 20C6 20.5523 6.44772 21 7 21H17.0041C17.5564 21 18.0041 20.5523 18.0041 20C18.0041 19.4477 17.5564 19 17.0041 19H7Z"/>
</mask>
<path d="M7 10V8C5.89543 8 5 8.89543 5 10H7ZM7 10H5C5 11.1046 5.89543 12 7 12V10ZM23.0041 10H7V12H23.0041V10ZM23.0041 10V12C24.1087 12 25.0041 11.1046 25.0041 10H23.0041ZM23.0041 10H25.0041C25.0041 8.89543 24.1087 8 23.0041 8V10ZM7 10H23.0041V8H7V10ZM7 20V18C5.89543 18 5 18.8954 5 20H7ZM7 20H5C5 21.1046 5.89543 22 7 22V20ZM17.0041 20H7V22H17.0041V20ZM17.0041 20V22C18.1087 22 19.0041 21.1046 19.0041 20H17.0041ZM17.0041 20H19.0041C19.0041 18.8954 18.1087 18 17.0041 18V20ZM7 20H17.0041V18H7V20Z" fill="#252554" mask="url(#path-2-inside-1)"/>
</svg>
