<svg width="30" height="30" viewBox="0 0 30 30" fill="none" xmlns="http://www.w3.org/2000/svg">
<path fill-rule="evenodd" clip-rule="evenodd" d="M20.7049 7.39346H21.6557C22.7016 7.39346 23.5574 8.24919 23.5574 9.29509V22.6066C23.5574 23.6525 22.7016 24.5082 21.6557 24.5082H8.34426C7.28886 24.5082 6.44263 23.6525 6.44263 22.6066L6.45214 9.29509C6.45214 8.24919 7.28886 7.39346 8.34426 7.39346H9.29508V6.44264C9.29508 5.91969 9.72295 5.49182 10.2459 5.49182C10.7689 5.49182 11.1967 5.91969 11.1967 6.44264V7.39346H18.8033V6.44264C18.8033 5.91969 19.2311 5.49182 19.7541 5.49182C20.277 5.49182 20.7049 5.91969 20.7049 6.44264V7.39346ZM20.7049 22.6066C21.2279 22.6066 21.6557 22.1787 21.6557 21.6557V12.1475H8.34426V21.6557C8.34426 22.1787 8.77213 22.6066 9.29508 22.6066H20.7049ZM12.1475 14.0492V15.9508H10.2459V14.0492H12.1475ZM15.9508 14.0492H14.0492V15.9508H15.9508V14.0492ZM19.7541 14.0492V15.9508H17.8524V14.0492H19.7541ZM12.1475 19.9508V18.0492H10.2459V19.9508H12.1475ZM14.0492 18.0492H15.9508V19.9508H14.0492V18.0492ZM19.7541 19.9508V18.0492H17.8524V19.9508H19.7541Z" fill="black"/>
</svg>
