<svg width="30" height="30" viewBox="0 0 30 30" fill="none" xmlns="http://www.w3.org/2000/svg">
<rect width="30" height="30" fill="#D8D8D8" fill-opacity="0.01"/>
<mask id="path-2-inside-1" fill="white">
<path fill-rule="evenodd" clip-rule="evenodd" d="M8.08406 6.66981C7.69354 6.27928 7.06037 6.27928 6.66985 6.66981C6.27932 7.06033 6.27932 7.6935 6.66985 8.08402L13.683 15.0971L6.66985 22.1102C6.27932 22.5008 6.27932 23.1339 6.66985 23.5244C7.06037 23.915 7.69354 23.915 8.08406 23.5244L15.0972 16.5113L22.1103 23.5244C22.5008 23.915 23.134 23.915 23.5245 23.5244C23.915 23.1339 23.915 22.5008 23.5245 22.1102L16.5114 15.0971L23.5245 8.08402C23.915 7.6935 23.915 7.06033 23.5245 6.66981C23.134 6.27928 22.5008 6.27928 22.1103 6.66981L15.0972 13.6829L8.08406 6.66981Z"/>
</mask>
<path d="M6.66985 6.66981L8.08406 8.08402L8.08406 8.08402L6.66985 6.66981ZM8.08406 6.66981L6.66985 8.08402L6.66985 8.08402L8.08406 6.66981ZM6.66985 8.08402L8.08406 6.66981L8.08406 6.66981L6.66985 8.08402ZM13.683 15.0971L15.0972 16.5113L16.5114 15.0971L15.0972 13.6829L13.683 15.0971ZM6.66985 22.1102L8.08406 23.5244H8.08406L6.66985 22.1102ZM6.66985 23.5244L8.08406 22.1102L6.66985 23.5244ZM8.08406 23.5244L9.49827 24.9387H9.49827L8.08406 23.5244ZM15.0972 16.5113L16.5114 15.0971L15.0972 13.6829L13.683 15.0971L15.0972 16.5113ZM16.5114 15.0971L15.0972 13.6829L13.683 15.0971L15.0972 16.5113L16.5114 15.0971ZM23.5245 8.08402L24.9387 9.49824V9.49823L23.5245 8.08402ZM23.5245 6.66981L22.1103 8.08402L23.5245 6.66981ZM22.1103 6.66981L23.5245 8.08402V8.08402L22.1103 6.66981ZM15.0972 13.6829L13.683 15.0971L15.0972 16.5113L16.5114 15.0971L15.0972 13.6829ZM8.08406 8.08402C7.69354 8.47455 7.06037 8.47455 6.66985 8.08402L9.49827 5.25559C8.3267 4.08402 6.42721 4.08402 5.25563 5.25559L8.08406 8.08402ZM8.08406 6.66981C8.47458 7.06033 8.47458 7.6935 8.08406 8.08402L5.25563 5.25559C4.08406 6.42717 4.08406 8.32666 5.25563 9.49824L8.08406 6.66981ZM15.0972 13.6829L8.08406 6.66981L5.25563 9.49824L12.2687 16.5113L15.0972 13.6829ZM8.08406 23.5244L15.0972 16.5113L12.2687 13.6829L5.25563 20.696L8.08406 23.5244ZM8.08406 22.1102C8.47458 22.5008 8.47458 23.1339 8.08406 23.5244L5.25563 20.696C4.08406 21.8676 4.08406 23.7671 5.25563 24.9387L8.08406 22.1102ZM6.66985 22.1102C7.06037 21.7197 7.69354 21.7197 8.08406 22.1102L5.25563 24.9387C6.42721 26.1102 8.3267 26.1102 9.49827 24.9387L6.66985 22.1102ZM13.683 15.0971L6.66985 22.1102L9.49827 24.9387L16.5114 17.9256L13.683 15.0971ZM23.5245 22.1102L16.5114 15.0971L13.683 17.9256L20.6961 24.9387L23.5245 22.1102ZM22.1103 22.1102C22.5008 21.7197 23.134 21.7197 23.5245 22.1102L20.6961 24.9387C21.8676 26.1102 23.7671 26.1102 24.9387 24.9387L22.1103 22.1102ZM22.1103 23.5244C21.7197 23.1339 21.7197 22.5008 22.1103 22.1102L24.9387 24.9387C26.1103 23.7671 26.1103 21.8676 24.9387 20.696L22.1103 23.5244ZM15.0972 16.5113L22.1103 23.5244L24.9387 20.696L17.9256 13.6829L15.0972 16.5113ZM22.1103 6.66981L15.0972 13.6829L17.9256 16.5113L24.9387 9.49824L22.1103 6.66981ZM22.1103 8.08402C21.7197 7.6935 21.7197 7.06033 22.1103 6.66981L24.9387 9.49823C26.1103 8.32666 26.1103 6.42717 24.9387 5.2556L22.1103 8.08402ZM23.5245 8.08402C23.134 8.47455 22.5008 8.47455 22.1103 8.08402L24.9387 5.2556C23.7671 4.08402 21.8676 4.08402 20.6961 5.2556L23.5245 8.08402ZM16.5114 15.0971L23.5245 8.08402L20.6961 5.25559L13.683 12.2687L16.5114 15.0971ZM6.66985 8.08402L13.683 15.0971L16.5114 12.2687L9.49827 5.25559L6.66985 8.08402Z" fill="white" mask="url(#path-2-inside-1)"/>
</svg>
