<svg width="30" height="30" viewBox="0 0 30 30" fill="none" xmlns="http://www.w3.org/2000/svg">
<rect width="30" height="30" fill="#D8D8D8" fill-opacity="0.01"/>
<mask id="path-2-inside-1" fill="white">
<path fill-rule="evenodd" clip-rule="evenodd" d="M16 3.94461C16 3.39232 15.5523 2.94461 15 2.94461C14.4477 2.94461 14 3.39232 14 3.94461L14 14L3.94461 14C3.39233 14 2.94461 14.4477 2.94462 15C2.94461 15.5523 3.39233 16 3.94462 16L14 16L14 26.0554C14 26.6077 14.4477 27.0554 15 27.0554C15.5523 27.0554 16 26.6077 16 26.0554L16 16L26.0554 16C26.6077 16 27.0554 15.5523 27.0554 15C27.0554 14.4477 26.6077 14 26.0554 14L16 14L16 3.94461Z"/>
</mask>
<path d="M15 2.94461L15 3.94461H15L15 2.94461ZM16 3.94461L17 3.94461L17 3.94461H16ZM14 3.94461H13L13 3.94461L14 3.94461ZM14 14V15H15V14H14ZM3.94461 14L3.94461 15L3.94461 15L3.94461 14ZM2.94462 15L3.94462 15L3.94462 15L2.94462 15ZM3.94462 16L3.94462 15L3.94461 15L3.94462 16ZM14 16H15V15H14V16ZM14 26.0554L15 26.0554L15 26.0554L14 26.0554ZM15 27.0554L15 26.0554H15L15 27.0554ZM16 26.0554L15 26.0554L15 26.0554L16 26.0554ZM16 16V15H15V16H16ZM26.0554 16L26.0554 15L26.0554 15L26.0554 16ZM27.0554 15L26.0554 15L26.0554 15L27.0554 15ZM26.0554 14L26.0554 15L26.0554 15L26.0554 14ZM16 14H15V15H16V14ZM15 3.94461L15 3.94461L17 3.94461C17 2.84004 16.1046 1.94461 15 1.94461L15 3.94461ZM15 3.94461L15 3.94461L15 1.94461C13.8954 1.94461 13 2.84004 13 3.94461L15 3.94461ZM15 14V3.94461L13 3.94461L13 14H15ZM3.94461 15L14 15V13L3.94461 13L3.94461 15ZM3.94462 15L3.94461 15L3.94462 13C2.84005 13 1.94461 13.8954 1.94462 15L3.94462 15ZM3.94461 15L3.94462 15L1.94462 15C1.94461 16.1046 2.84005 17 3.94462 17L3.94461 15ZM14 15L3.94462 15L3.94462 17L14 17V15ZM15 26.0554L15 16H13L13 26.0554L15 26.0554ZM15 26.0554L15 26.0554L13 26.0554C13 27.1599 13.8954 28.0554 15 28.0554L15 26.0554ZM15 26.0554L15 26.0554L15 28.0554C16.1046 28.0554 17 27.1599 17 26.0554L15 26.0554ZM15 16L15 26.0554L17 26.0554L17 16H15ZM26.0554 15L16 15V17L26.0554 17L26.0554 15ZM26.0554 15L26.0554 15L26.0554 17C27.16 17 28.0554 16.1046 28.0554 15L26.0554 15ZM26.0554 15L26.0554 15L28.0554 15C28.0554 13.8954 27.16 13 26.0554 13L26.0554 15ZM16 15H26.0554L26.0554 13L16 13V15ZM15 3.94461V14H17L17 3.94461L15 3.94461Z" fill="#252554" mask="url(#path-2-inside-1)"/>
</svg>
