<svg width="102" height="72" viewBox="0 0 102 72" fill="none" xmlns="http://www.w3.org/2000/svg">
<path fill-rule="evenodd" clip-rule="evenodd" d="M21 31C21 14.4315 34.4315 1 51 1C67.5685 1 81 14.4315 81 31C81 42.0457 89.9543 51 101 51V71H1V51C12.0457 51 21 42.0457 21 31Z" fill="#252554"/>
<path fill-rule="evenodd" clip-rule="evenodd" d="M58.7281 19.7434C58.9812 19.4239 58.9601 18.9583 58.6649 18.6631C58.3469 18.3451 57.8314 18.3451 57.5135 18.6631L51 25.1766L44.4865 18.6631L44.4155 18.5998C44.0959 18.3468 43.6304 18.3678 43.3351 18.6631C43.0172 18.981 43.0172 19.4965 43.3351 19.8144L50.4243 26.9036L50.4953 26.9669C50.8149 27.2199 51.2804 27.1988 51.5757 26.9036L58.6649 19.8144L58.7281 19.7434ZM58.7281 31.026C58.9812 30.7064 58.9601 30.2409 58.6649 29.9456C58.3469 29.6277 57.8314 29.6277 57.5135 29.9456L51 36.4591L44.4865 29.9456L44.4155 29.8824C44.0959 29.6293 43.6304 29.6504 43.3351 29.9456C43.0172 30.2636 43.0172 30.779 43.3351 31.097L50.4243 38.1862L50.4953 38.2494C50.8149 38.5025 51.2804 38.4814 51.5757 38.1862L58.6649 31.097L58.7281 31.026Z" fill="white"/>
</svg>
