<svg width="30" height="30" viewBox="0 0 30 30" fill="none" xmlns="http://www.w3.org/2000/svg">
<rect width="30" height="30" fill="#D8D8D8" fill-opacity="0.01"/>
<mask id="path-2-inside-1" fill="white">
<path fill-rule="evenodd" clip-rule="evenodd" d="M21.3413 14.4443C21.5717 14.2921 21.6351 13.9819 21.4828 13.7515C21.3306 13.5211 21.0204 13.4578 20.79 13.61L15.0026 17.4343L9.32315 13.6123C9.09405 13.4582 8.78335 13.5189 8.62918 13.748C8.47501 13.9771 8.53575 14.2878 8.76485 14.442L14.7113 18.4436C14.7956 18.5032 14.8961 18.5348 14.9979 18.5353C15.0689 18.5356 15.1406 18.5209 15.2079 18.4901C15.2348 18.4778 15.2607 18.4631 15.2853 18.446L21.3413 14.4443Z"/>
</mask>
<path d="M21.4828 13.7515L19.8142 14.8541L19.8142 14.8541L21.4828 13.7515ZM21.3413 14.4443L22.4439 16.1129L22.4439 16.1129L21.3413 14.4443ZM20.79 13.61L21.8926 15.2786L21.8926 15.2786L20.79 13.61ZM15.0026 17.4343L13.886 19.0935L14.9924 19.8381L16.1052 19.1029L15.0026 17.4343ZM9.32315 13.6123L8.20655 15.2716L8.20655 15.2716L9.32315 13.6123ZM8.62918 13.748L10.2885 14.8646L10.2885 14.8646L8.62918 13.748ZM8.76485 14.442L9.88145 12.7827L9.88145 12.7827L8.76485 14.442ZM14.7113 18.4436L15.8656 16.8103L15.8469 16.7971L15.8279 16.7843L14.7113 18.4436ZM14.9979 18.5353L14.9877 20.5353L14.9877 20.5353L14.9979 18.5353ZM15.2079 18.4901L14.3784 16.6702L14.3744 16.672L15.2079 18.4901ZM15.2853 18.446L14.1828 16.7774L14.1636 16.79L14.1448 16.8031L15.2853 18.446ZM19.8142 14.8541C19.3575 14.1629 19.5476 13.2324 20.2387 12.7757L22.4439 16.1129C23.5959 15.3517 23.9126 13.8009 23.1514 12.6489L19.8142 14.8541ZM21.8926 15.2786C21.2015 15.7353 20.2709 15.5453 19.8142 14.8541L23.1514 12.6489C22.3903 11.497 20.8394 11.1802 19.6874 11.9414L21.8926 15.2786ZM16.1052 19.1029L21.8926 15.2786L19.6874 11.9414L13.9 15.7656L16.1052 19.1029ZM8.20655 15.2716L13.886 19.0935L16.1192 15.775L10.4397 11.9531L8.20655 15.2716ZM10.2885 14.8646C9.82594 15.5519 8.89384 15.7341 8.20655 15.2716L10.4397 11.9531C9.29425 11.1822 7.74075 11.4859 6.9699 12.6314L10.2885 14.8646ZM9.88145 12.7827C10.5687 13.2452 10.751 14.1773 10.2885 14.8646L6.9699 12.6314C6.19905 13.7769 6.50275 15.3304 7.64825 16.1013L9.88145 12.7827ZM15.8279 16.7843L9.88145 12.7827L7.64825 16.1013L13.5947 20.1029L15.8279 16.7843ZM15.0082 16.5353C15.3109 16.5369 15.6108 16.6302 15.8656 16.8103L13.5569 20.0768C13.9804 20.3761 14.4813 20.5327 14.9877 20.5353L15.0082 16.5353ZM14.3744 16.672C14.5782 16.5786 14.7953 16.5342 15.0082 16.5353L14.9877 20.5353C15.3426 20.5371 15.7029 20.4633 16.0414 20.3081L14.3744 16.672ZM14.1448 16.8031C14.2193 16.7514 14.2976 16.707 14.3784 16.6702L16.0374 20.3099C16.172 20.2486 16.3022 20.1748 16.4259 20.0889L14.1448 16.8031ZM20.2387 12.7757L14.1828 16.7774L16.3879 20.1146L22.4439 16.1129L20.2387 12.7757Z" fill="#252554" mask="url(#path-2-inside-1)"/>
</svg>
